IKResults
version=1
nRows=7
nColumns=40
inDegrees=yes

Units are S.I. units (second, meters, Newtons, ...)
If the header above contains a line with 'inDegrees', this indicates whether rotational values are in degrees (yes) or radians (no).

endheader
time	pelvis_tilt	pelvis_list	pelvis_rotation	pelvis_tx	pelvis_ty	pelvis_tz	hip_flexion_r	hip_adduction_r	hip_rotation_r	knee_angle_r	knee_angle_r_beta	ankle_angle_r	subtalar_angle_r	mtp_angle_r	hip_flexion_l	hip_adduction_l	hip_rotation_l	knee_angle_l	knee_angle_l_beta	ankle_angle_l	subtalar_angle_l	mtp_angle_l	lumbar_extension	lumbar_bending	lumbar_rotation	arm_flex_r	arm_add_r	arm_rot_r	elbow_flex_r	pro_sup_r	wrist_flex_r	wrist_dev_r	arm_flex_l	arm_add_l	arm_rot_l	elbow_flex_l	pro_sup_l	wrist_flex_l	wrist_dev_l
      0.00000000	      2.39590478	      4.49107737	     10.93693926	     -2.09145997	      0.87569810	     -0.25905078	     35.13116634	    -14.95901135	    -19.40527953	     16.79233257	      0.29308149	    -10.14995427	      0.00000000	      0.00000000	    -29.84529219	      0.30466838	     -6.64234873	      8.42465388	      0.14703795	      7.73223242	      0.00000000	      0.00000000	     -9.84234410	     -2.25661931	    -19.96392110	     -7.98218911	    -14.79633812	     55.62071805	     17.40782298	     81.86714196	      0.00000000	      0.00000000	     21.85627938	    -41.50170937	     44.22773435	     56.80860351	     87.59505281	      0.00000000	      0.00000000
      0.00500000	      2.21161907	      4.40508016	     11.04819810	     -2.08203086	      0.87508427	     -0.25844203	     35.25165306	    -14.86110140	    -19.49209976	     16.82455771	      0.29364393	    -10.03720307	      0.00000000	      0.00000000	    -29.84690981	     -0.05102461	     -6.79181305	      9.02187356	      0.15746140	      7.06040381	      0.00000000	      0.00000000	     -9.57716720	     -2.20032811	    -19.87569452	     -8.24479984	    -14.66077468	     55.67814818	     17.27310508	     81.89218434	      0.00000000	      0.00000000	     21.76936042	    -41.41896985	     44.16683856	     56.80888862	     87.58911766	      0.00000000	      0.00000000
      0.01000000	      2.11430292	      4.22639727	     11.21863971	     -2.07227812	      0.87474075	     -0.25796377	     35.22262925	    -14.71413922	    -19.72374043	     16.98716468	      0.29648195	     -9.70184557	      0.00000000	      0.00000000	    -29.84975236	     -0.57385387	     -7.30796317	      9.75338273	      0.17022864	      6.23569020	      0.00000000	      0.00000000	     -9.36348585	     -2.01363973	    -19.87685598	     -8.44846955	    -14.50944064	     55.77774108	     17.00397127	     81.95230646	      0.00000000	      0.00000000	     21.53799854	    -41.31727529	     43.99222040	     56.76385320	     87.58552328	      0.00000000	      0.00000000
      0.01500000	      2.05156464	      3.97110882	     11.49632527	     -2.06231995	      0.87447343	     -0.25767215	     35.11013741	    -14.55837035	    -20.05120364	     17.26290562	      0.30129454	     -9.41387808	      0.00000000	      0.00000000	    -29.85050801	     -1.23918608	     -7.70154870	     10.53387651	      0.18385083	      5.51220392	      0.00000000	      0.00000000	     -9.15141442	     -1.72346076	    -19.99638347	     -8.65399746	    -14.38734510	     56.09058971	     16.78206985	     82.05814013	      0.00000000	      0.00000000	     21.19939459	    -41.18494464	     43.66737321	     56.76067593	     87.60260400	      0.00000000	      0.00000000
      0.02000000	      1.98900349	      3.74862548	     11.75570596	     -2.05230206	      0.87435091	     -0.25730223	     35.03907334	    -14.44030094	    -20.23137186	     17.74921978	      0.30978232	     -9.19626000	      0.00000000	      0.00000000	    -29.85030356	     -1.88256532	     -7.95438158	     11.28156721	      0.19690049	      4.63010158	      0.00000000	      0.00000000	     -8.94362272	     -1.48050606	    -20.10015041	     -8.83178886	    -14.26256621	     56.41020307	     16.53158614	     82.13275258	      0.00000000	      0.00000000	     20.75684163	    -41.07714992	     43.29176165	     56.82838414	     87.61118483	      0.00000000	      0.00000000
      0.02500000	      1.98577600	      3.42337626	     12.10264326	     -2.04221827	      0.87434142	     -0.25700287	     34.85320903	    -14.24717244	    -20.44693820	     18.26573081	      0.31879714	     -9.08402499	      0.00000000	      0.00000000	    -29.85006504	     -2.68634570	     -8.10745959	     12.07655289	      0.21077561	      3.82988585	      0.00000000	      0.00000000	     -8.79124541	     -1.09783764	    -20.44945296	     -8.84254810	    -14.15238658	     57.21037838	     16.17791044	     82.29253932	      0.00000000	      0.00000000	     19.82321577	    -41.03135830	     42.10357143	     57.20569587	     87.64677171	      0.00000000	      0.00000000
      0.03000000	      1.92165050	      3.20265833	     12.29868191	     -2.03199970	      0.87422788	     -0.25656646	     34.81999739	    -14.06853204	    -20.18713378	     18.95307058	      0.33079348	     -9.05890207	      0.00000000	      0.00000000	    -29.85074108	     -3.28318382	     -8.13593021	     12.75920618	      0.22269016	      2.89692424	      0.00000000	      0.00000000	     -8.57017491	     -0.86649465	    -20.40534057	     -9.09730589	    -14.04972826	     57.26169849	     16.05566852	     82.29532977	      0.00000000	      0.00000000	     19.52648033	    -40.88246746	     42.03164479	     57.16926943	     87.64083394	      0.00000000	      0.00000000
